<?xml version="1.0" standalone="no"?>
<!DOCTYPE svg PUBLIC "-//W3C//DTD SVG 20010904//EN"
 "http://www.w3.org/TR/2001/REC-SVG-20010904/DTD/svg10.dtd">
<svg version="1.0" xmlns="http://www.w3.org/2000/svg"
 width="500.000000pt" height="500.000000pt" viewBox="0 0 500.000000 500.000000"
 preserveAspectRatio="xMidYMid meet">
<metadata>
Created by potrace 1.11, written by Peter Selinger 2001-2013
</metadata>
<g transform="translate(0.000000,500.000000) scale(0.100000,-0.100000)"
fill="#000000" stroke="none">
<path d="M1115 3740 c-71 -8 -156 -44 -206 -88 -82 -72 -133 -218 -132 -382 0
-221 77 -369 224 -435 72 -32 187 -43 267 -26 l52 11 48 -50 c38 -39 55 -50
79 -50 77 0 81 26 19 103 l-45 54 35 34 c99 95 146 265 124 444 -34 276 -199
412 -465 385z m173 -89 c80 -41 128 -136 141 -285 11 -114 -2 -256 -29 -329
-31 -84 -41 -87 -90 -28 -50 59 -90 79 -125 63 -38 -18 -31 -48 30 -122 51
-64 53 -68 32 -74 -43 -11 -123 -5 -162 13 -87 39 -138 135 -155 295 -18 158
14 332 75 412 61 80 186 104 283 55z"/>
<path d="M3260 3401 c-16 -31 -12 -49 15 -67 23 -15 27 -15 50 0 43 28 26 86
-25 86 -19 0 -33 -7 -40 -19z"/>
<path d="M2961 3330 c-17 -22 -45 -47 -62 -56 -37 -19 -33 -38 9 -42 l31 -3 3
-149 c3 -145 4 -150 29 -175 27 -27 82 -41 123 -31 39 10 86 55 86 82 0 29
-25 32 -40 5 -18 -34 -41 -51 -69 -51 -42 0 -51 32 -51 185 l0 135 48 0 c26 0
53 4 61 9 26 16 0 31 -55 31 l-54 0 0 50 c0 62 -15 65 -59 10z"/>
<path d="M1647 3263 c-4 -3 -7 -80 -7 -169 0 -155 1 -164 23 -189 42 -49 146
-43 200 11 l25 25 7 -31 c7 -32 47 -52 66 -33 5 5 8 89 7 199 -3 189 -3 189
-26 192 -46 7 -52 -11 -52 -148 0 -112 -2 -130 -20 -153 -26 -33 -82 -52 -109
-37 -35 18 -41 45 -41 175 0 69 -5 135 -10 146 -10 18 -50 26 -63 12z"/>
<path d="M2170 3248 c-61 -32 -90 -88 -90 -177 0 -151 106 -232 249 -191 41
12 91 57 91 82 0 27 -18 22 -61 -17 -31 -28 -47 -35 -80 -35 -70 0 -99 30
-114 118 l-7 42 119 0 c65 0 124 4 132 9 19 12 16 85 -6 121 -40 68 -149 90
-233 48z m141 -37 c21 -22 29 -39 29 -65 l0 -36 -85 0 c-77 0 -85 2 -85 19 0
53 46 111 88 111 13 0 37 -13 53 -29z"/>
<path d="M2564 3251 c-67 -30 -83 -104 -32 -151 12 -11 55 -33 97 -48 90 -35
121 -67 103 -107 -25 -54 -115 -57 -154 -5 -36 49 -82 50 -76 2 5 -43 59 -67
148 -67 84 0 137 23 158 70 29 64 -6 111 -111 151 -111 42 -141 80 -97 124 32
32 77 26 114 -15 35 -38 56 -44 76 -20 10 12 9 20 -4 39 -30 46 -148 60 -222
27z"/>
<path d="M3267 3263 c-4 -3 -7 -91 -7 -195 0 -204 1 -207 55 -194 l25 6 0 183
c0 129 -4 187 -12 195 -13 13 -50 16 -61 5z"/>
<path d="M3560 3259 c-130 -52 -148 -274 -29 -361 16 -12 50 -22 87 -25 81 -8
143 21 175 81 30 57 31 174 1 231 -36 70 -151 107 -234 74z m142 -51 c23 -30
32 -93 26 -179 -6 -80 -25 -115 -68 -124 -78 -17 -120 42 -120 166 0 116 40
176 110 165 19 -3 42 -15 52 -28z"/>
<path d="M3927 3263 c-9 -8 -9 -356 -1 -377 6 -16 30 -21 58 -10 13 5 16 26
16 125 0 137 12 179 59 203 40 21 67 20 91 -4 18 -18 20 -33 20 -147 0 -144
10 -176 52 -181 37 -4 41 15 36 193 l-3 147 -33 29 c-51 46 -135 38 -194 -19
l-28 -26 0 25 c0 14 -5 30 -12 37 -13 13 -50 16 -61 5z"/>
<path d="M832 2318 c-9 -9 -12 -123 -12 -453 0 -415 1 -443 18 -458 25 -23 78
-21 102 3 19 19 20 33 20 209 0 157 3 191 15 201 9 7 17 11 18 9 49 -65 358
-406 380 -420 36 -21 69 -24 98 -9 44 24 25 53 -181 284 l-200 224 138 134
c75 74 163 159 196 189 53 50 57 58 47 77 -8 16 -21 22 -43 22 -28 0 -58 -26
-250 -217 l-218 -217 0 190 c0 178 -1 193 -21 218 -15 20 -29 26 -58 26 -20 0
-42 -5 -49 -12z"/>
<path d="M3416 2165 c-99 -93 -140 -125 -159 -125 -20 0 -42 19 -94 79 -37 43
-81 85 -96 92 -37 16 -73 4 -101 -34 l-20 -27 28 -293 c30 -317 40 -357 95
-390 26 -15 72 -17 508 -17 456 0 479 1 510 20 54 32 62 61 88 323 38 371 37
406 -21 427 -48 19 -65 10 -149 -70 -59 -56 -91 -80 -108 -80 -17 0 -67 35
-157 110 -102 85 -139 110 -161 110 -24 0 -55 -24 -163 -125z m297 -58 c171
-144 200 -146 322 -27 40 38 78 70 84 70 15 0 14 -48 -9 -260 -11 -102 -20
-188 -20 -193 0 -4 -231 -6 -512 -5 l-513 3 -22 215 c-11 118 -19 218 -16 223
9 15 22 5 78 -60 74 -87 98 -103 157 -103 42 0 53 5 105 49 32 27 89 81 128
120 38 39 75 71 83 71 7 0 68 -47 135 -103z m367 -513 c0 -19 -19 -56 -34 -66
-6 -4 -218 -8 -472 -8 -509 0 -482 -3 -498 63 l-6 27 505 0 c452 0 505 -2 505
-16z"/>
<path d="M1600 1951 c-16 -31 -12 -49 15 -67 23 -15 27 -15 50 0 43 28 26 86
-25 86 -19 0 -33 -7 -40 -19z"/>
<path d="M2582 1848 c-6 -6 -12 -21 -12 -31 0 -15 -5 -18 -22 -12 -47 14 -127
17 -162 5 -81 -26 -112 -117 -61 -178 14 -17 25 -32 25 -34 0 -3 -18 -13 -40
-23 -48 -22 -62 -56 -35 -85 22 -24 33 -28 145 -44 99 -15 130 -33 130 -73 0
-58 -49 -93 -127 -93 -78 1 -116 46 -87 102 18 35 14 43 -20 34 -25 -6 -56
-50 -56 -80 0 -33 50 -75 103 -86 134 -27 267 44 267 144 0 67 -52 100 -178
115 -87 9 -102 15 -102 36 0 23 42 39 98 36 65 -3 130 26 155 68 21 35 22 63
3 100 -13 25 -13 28 5 40 14 8 19 21 17 39 -3 29 -26 40 -46 20z m-82 -68 c24
-13 43 -70 34 -104 -8 -32 -49 -66 -79 -66 -13 0 -33 9 -46 19 -20 16 -24 29
-24 71 0 42 4 55 24 71 25 21 62 25 91 9z"/>
<path d="M1607 1813 c-4 -3 -7 -91 -7 -195 0 -204 1 -207 55 -194 l25 6 0 183
c0 129 -4 187 -12 195 -13 13 -50 16 -61 5z"/>
<path d="M1825 1808 c-3 -8 -4 -97 -3 -198 3 -185 3 -185 26 -188 46 -7 52 11
52 149 0 126 0 129 28 159 39 43 83 49 116 17 25 -25 26 -30 26 -161 0 -145 8
-171 54 -164 20 3 21 7 21 175 0 164 -1 174 -22 194 -44 45 -173 31 -206 -22
-9 -15 -12 -14 -26 15 -17 33 -57 48 -66 24z"/>
</g>
</svg>
